<svg xmlns="http://www.w3.org/2000/svg" width="1200" height="360" viewBox="0 0 1200 360" role="img" aria-labelledby="title desc">
  <title id="title">Harish Karthick S  software engineer</title>
  <desc id="desc">A warm editorial illustration of ideas becoming software.</desc>

  <defs>
    <linearGradient id="night" x1="0" y1="0" x2="1" y2="1">
      <stop offset="0" stop-color="#101722"/>
      <stop offset="0.55" stop-color="#172433"/>
      <stop offset="1" stop-color="#0f1922"/>
    </linearGradient>
    <linearGradient id="sun" x1="0" y1="0" x2="0" y2="1">
      <stop offset="0" stop-color="#ffd88a"/>
      <stop offset="1" stop-color="#ff9f68"/>
    </linearGradient>
    <filter id="soft">
      <feGaussianBlur stdDeviation="18"/>
    </filter>
    <pattern id="grain" width="48" height="48" patternUnits="userSpaceOnUse">
      <circle cx="4" cy="7" r="0.7" fill="#ffffff" opacity="0.09"/>
      <circle cx="26" cy="31" r="0.6" fill="#ffffff" opacity="0.07"/>
      <circle cx="42" cy="16" r="0.5" fill="#ffffff" opacity="0.08"/>
    </pattern>
  </defs>

  <rect width="1200" height="360" rx="28" fill="url(#night)"/>
  <rect width="1200" height="360" rx="28" fill="url(#grain)"/>

  <circle cx="1002" cy="178" r="108" fill="#56c7bb" opacity="0.08" filter="url(#soft)"/>
  <circle cx="1002" cy="178" r="74" fill="none" stroke="#56c7bb" stroke-width="1.5" opacity="0.48"/>
  <circle cx="1002" cy="178" r="43" fill="url(#sun)"/>
  <path d="M900 230c52-24 97-29 137-15 30 10 62 7 99-12" fill="none" stroke="#f3efe5" stroke-width="2" opacity="0.68"/>
  <path d="M901 246c56-20 105-21 146-5 26 10 54 9 85 0" fill="none" stroke="#56c7bb" stroke-width="2" opacity="0.56"/>
  <circle cx="890" cy="93" r="4" fill="#ffd88a"/>
  <circle cx="1120" cy="98" r="3" fill="#56c7bb"/>
  <circle cx="1083" cy="278" r="4" fill="#ff9f68"/>
  <path d="M876 132l9 3 3 9 3-9 9-3-9-3-3-9-3 9z" fill="#f3efe5" opacity="0.86"/>
  <path d="M1107 150l6 2 2 6 2-6 6-2-6-2-2-6-2 6z" fill="#ffd88a"/>

  <text x="76" y="82" fill="#56c7bb" font-family="'Courier New', monospace" font-size="16" letter-spacing="4">HELLO, IM</text>
  <text x="72" y="152" fill="#f3efe5" font-family="Georgia, 'Times New Roman', serif" font-size="57" font-weight="700">Harish Karthick S</text>
  <text x="76" y="201" fill="#c5d1dc" font-family="'Courier New', monospace" font-size="20">software engineer · curious builder</text>
  <line x1="76" y1="236" x2="568" y2="236" stroke="#33495c" stroke-width="1"/>
  <text x="76" y="278" fill="#f3efe5" font-family="Georgia, 'Times New Roman', serif" font-size="22" font-style="italic">Useful software, made with care.</text>

  <rect x="75" y="306" width="54" height="3" rx="1.5" fill="#ff9f68"/>
  <rect x="137" y="306" width="24" height="3" rx="1.5" fill="#ffd88a"/>
</svg>
